<svg width="22" height="22" viewBox="0 0 22 22" fill="none" xmlns="http://www.w3.org/2000/svg">
<path fill-rule="evenodd" clip-rule="evenodd" d="M21.702 0.297951C21.5755 0.167072 21.4148 0.0743417 21.2382 0.03032C21.0616 -0.0137018 20.8761 -0.00724628 20.703 0.0489512L0.511 6.55595L0.504 6.55895C0.357768 6.63995 0.236672 6.75966 0.154 6.90495C0.0564409 7.06404 0.00326574 7.24636 0 7.43295C0 7.62295 0.063 7.80895 0.154 7.96095C0.236527 8.10661 0.357635 8.22668 0.504 8.30795L0.506 8.30895L9.668 12.332L13.688 21.488C13.823 21.883 14.218 22 14.567 22C14.944 22 15.32 21.75 15.447 21.37L21.949 1.18995C22.0111 1.04464 22.0172 0.881468 21.966 0.731951C21.9146 0.567975 21.824 0.419006 21.702 0.297951ZM10.224 10.43L3.524 7.55795L17.677 2.94795L10.345 10.28C10.318 10.307 10.295 10.33 10.278 10.349C10.259 10.3693 10.2428 10.3922 10.23 10.417L10.227 10.423L10.224 10.43Z" fill="#8A898E"/>
</svg>
