<svg width="20" height="22" viewBox="0 0 20 22" fill="none" xmlns="http://www.w3.org/2000/svg">
<path fill-rule="evenodd" clip-rule="evenodd" d="M17 1V2C18.953 2 20.03 2.926 20 4.943V18.501C20.0009 18.9608 19.9111 19.4162 19.7355 19.8411C19.56 20.266 19.3023 20.6521 18.9772 20.9772C18.6521 21.3023 18.266 21.56 17.8411 21.7355C17.4162 21.911 16.9608 22.0009 16.501 22H3.50001C3.04017 22.0011 2.58465 21.9113 2.1596 21.7358C1.73455 21.5604 1.34834 21.3027 1.02314 20.9776C0.697934 20.6525 0.440145 20.2663 0.264568 19.8413C0.0889916 19.4163 -0.00091596 18.9608 7.03509e-06 18.501V4.943C7.03509e-06 3.035 1.00001 2 3.00001 2V1C3.00001 0.734784 3.10536 0.48043 3.2929 0.292893C3.48044 0.105357 3.73479 0 4.00001 0C4.26522 0 4.51958 0.105357 4.70711 0.292893C4.89465 0.48043 5.00001 0.734784 5.00001 1V2H15V1C15 0.734784 15.1054 0.48043 15.2929 0.292893C15.4804 0.105357 15.7348 0 16 0C16.2652 0 16.5196 0.105357 16.7071 0.292893C16.8947 0.48043 17 0.734784 17 1ZM16.67 20C17.422 20 18 19.393 18 18.67V6.078H2.00001V18.67C2.00001 19.393 2.60701 20 3.33001 20H16.67ZM10.456 8.016C10.4165 7.92814 10.3524 7.85356 10.2715 7.80125C10.1906 7.74893 10.0963 7.7211 10 7.7211C9.90367 7.7211 9.80938 7.74893 9.72848 7.80125C9.64758 7.85356 9.58352 7.92814 9.54401 8.016L8.31401 10.756C8.2784 10.8357 8.22255 10.9046 8.15203 10.956C8.08151 11.0074 7.99876 11.0395 7.91201 11.049L4.92601 11.372C4.8303 11.3825 4.73965 11.4203 4.66494 11.4811C4.59023 11.5418 4.53465 11.6228 4.50487 11.7144C4.47509 11.8059 4.47238 11.9042 4.49706 11.9972C4.52174 12.0903 4.57277 12.1742 4.64401 12.239L6.87001 14.256C6.93454 14.3147 6.98262 14.3892 7.00946 14.4721C7.0363 14.5551 7.04097 14.6437 7.02301 14.729L6.40801 17.669C6.38856 17.7633 6.39674 17.8611 6.43154 17.9508C6.46635 18.0406 6.52631 18.1183 6.60423 18.1748C6.68215 18.2313 6.77472 18.2641 6.87082 18.2693C6.96692 18.2745 7.06247 18.2518 7.14601 18.204L9.75101 16.711C9.82678 16.6675 9.91263 16.6446 10 16.6446C10.0874 16.6446 10.1732 16.6675 10.249 16.711L12.854 18.205C12.9377 18.253 13.0335 18.2758 13.1298 18.2706C13.2262 18.2653 13.319 18.2324 13.397 18.1756C13.475 18.1188 13.5349 18.0407 13.5695 17.9506C13.6041 17.8606 13.6119 17.7624 13.592 17.668L12.977 14.728C12.9592 14.6428 12.964 14.5545 12.9908 14.4717C13.0177 14.3889 13.0656 14.3146 13.13 14.256L15.356 12.239C15.4272 12.1742 15.4783 12.0903 15.503 11.9972C15.5276 11.9042 15.5249 11.8059 15.4951 11.7144C15.4654 11.6228 15.4098 11.5418 15.3351 11.4811C15.2604 11.4203 15.1697 11.3825 15.074 11.372L12.088 11.049C12.0013 11.0395 11.9185 11.0074 11.848 10.956C11.7775 10.9046 11.7216 10.8357 11.686 10.756L10.456 8.016Z" fill="#8A898E"/>
</svg>
