<svg width="20" height="22" viewBox="0 0 20 22" fill="none" xmlns="http://www.w3.org/2000/svg">
<path fill-rule="evenodd" clip-rule="evenodd" d="M17 2V1C17 0.734784 16.8947 0.48043 16.7071 0.292893C16.5196 0.105357 16.2652 0 16 0C15.7348 0 15.4804 0.105357 15.2929 0.292893C15.1054 0.48043 15 0.734784 15 1V2H5.00001V1C5.00001 0.734784 4.89465 0.48043 4.70711 0.292893C4.51958 0.105357 4.26522 0 4.00001 0C3.73479 0 3.48044 0.105357 3.2929 0.292893C3.10536 0.48043 3.00001 0.734784 3.00001 1V2C1.00001 2 7.03078e-06 3.035 7.03078e-06 4.943V18.501C-0.000915512 18.9608 0.0889591 19.4162 0.264474 19.8411C0.439988 20.266 0.697687 20.6521 1.02278 20.9772C1.34788 21.3023 1.73397 21.56 2.15891 21.7355C2.58384 21.911 3.03925 22.0009 3.49901 22H16.5C16.9598 22.0011 17.4154 21.9113 17.8404 21.7358C18.2655 21.5604 18.6517 21.3027 18.9769 20.9776C19.3021 20.6525 19.5599 20.2663 19.7354 19.8413C19.911 19.4163 20.0009 18.9608 20 18.501V4.943C20.03 2.926 18.953 2 17 2ZM18 18.67C18 19.393 17.422 20 16.67 20H3.33001C2.60701 20 2.00001 19.393 2.00001 18.67V6.078H18V18.67ZM5.00001 9C5.00001 8.73478 5.10536 8.48043 5.2929 8.29289C5.48044 8.10536 5.73479 8 6.00001 8H8.00001C8.26522 8 8.51958 8.10536 8.70711 8.29289C8.89465 8.48043 9.00001 8.73478 9.00001 9V11C9.00001 11.2652 8.89465 11.5196 8.70711 11.7071C8.51958 11.8946 8.26522 12 8.00001 12H6.00001C5.73479 12 5.48044 11.8946 5.2929 11.7071C5.10536 11.5196 5.00001 11.2652 5.00001 11V9ZM12 8C11.7348 8 11.4804 8.10536 11.2929 8.29289C11.1054 8.48043 11 8.73478 11 9V11C11 11.2652 11.1054 11.5196 11.2929 11.7071C11.4804 11.8946 11.7348 12 12 12H14C14.2652 12 14.5196 11.8946 14.7071 11.7071C14.8947 11.5196 15 11.2652 15 11V9C15 8.73478 14.8947 8.48043 14.7071 8.29289C14.5196 8.10536 14.2652 8 14 8H12ZM5.00001 15C5.00001 14.7348 5.10536 14.4804 5.2929 14.2929C5.48044 14.1054 5.73479 14 6.00001 14H8.00001C8.26522 14 8.51958 14.1054 8.70711 14.2929C8.89465 14.4804 9.00001 14.7348 9.00001 15V17C9.00001 17.2652 8.89465 17.5196 8.70711 17.7071C8.51958 17.8946 8.26522 18 8.00001 18H6.00001C5.73479 18 5.48044 17.8946 5.2929 17.7071C5.10536 17.5196 5.00001 17.2652 5.00001 17V15ZM11 15C11 14.7348 11.1054 14.4804 11.2929 14.2929C11.4804 14.1054 11.7348 14 12 14H14C14.2652 14 14.5196 14.1054 14.7071 14.2929C14.8947 14.4804 15 14.7348 15 15V17C15 17.2652 14.8947 17.5196 14.7071 17.7071C14.5196 17.8946 14.2652 18 14 18H12C11.7348 18 11.4804 17.8946 11.2929 17.7071C11.1054 17.5196 11 17.2652 11 17V15Z" fill="#006CFF"/>
</svg>
