<svg width="39" height="48" viewBox="0 0 39 48" fill="none" xmlns="http://www.w3.org/2000/svg">
<path fill-rule="evenodd" clip-rule="evenodd" d="M15.0001 48C28.2551 48 39.0001 37.255 39.0001 24C39.0001 10.745 28.2551 0 15.0001 0V48ZM15.0001 16.459C13.9954 16.4498 12.9987 16.6373 12.0661 17.011L12.0391 17.021C11.117 17.4065 10.2802 17.9702 9.5764 18.6798C8.87264 19.3894 8.31585 20.2309 7.93793 21.1561C7.56002 22.0813 7.36841 23.072 7.3741 24.0714C7.37979 25.0707 7.58266 26.0592 7.97109 26.98C8.5498 28.3657 9.52656 29.5486 10.7778 30.379C12.029 31.2094 13.4984 31.65 15.0001 31.645V29.19C13.9879 29.1812 13.0004 28.8756 12.1602 28.311C11.32 27.7465 10.6638 26.9478 10.2731 26.014C9.17109 23.391 10.3871 20.362 13.0091 19.26C13.6389 18.9945 14.3156 18.8585 14.9991 18.86V16.46L15.0001 16.459ZM11.3031 15.195C11.7761 14.978 12.0391 14.45 11.9321 13.918L11.8191 13.65L10.2691 9.956C10.0971 9.398 9.44409 9.043 8.88609 9.214C8.87351 9.24634 8.85285 9.27492 8.82609 9.297C8.81209 9.308 8.80209 9.312 8.80209 9.312C8.26609 9.537 7.98709 10.222 8.26509 10.734L8.28809 10.788L9.83809 14.482C10.0101 15.04 10.5871 15.364 11.1681 15.247C11.2141 15.232 11.2591 15.215 11.3031 15.195ZM0.983088 28.78C0.425088 28.952 0.100089 29.529 0.218089 30.11C0.389089 30.667 0.966088 30.991 1.54609 30.874L1.81409 30.762L5.50809 29.211C6.06509 29.039 6.39009 28.462 6.27209 27.882C6.10109 27.324 5.52409 27 4.94309 27.117L4.67609 27.23L0.982089 28.78H0.983088ZM1.71409 17.326C1.42302 17.2134 1.09937 17.2195 0.812772 17.343C0.526171 17.4666 0.299519 17.6977 0.181577 17.9867C0.063636 18.2756 0.0638303 18.5993 0.182119 18.8881C0.300408 19.177 0.527338 19.4078 0.814089 19.531L4.53809 21.053C4.82789 21.1602 5.14801 21.1506 5.43086 21.0262C5.7137 20.9018 5.93712 20.6723 6.05394 20.3862C6.17075 20.1002 6.17182 19.7799 6.0569 19.4931C5.94199 19.2062 5.7201 18.9753 5.43809 18.849L1.71409 17.326ZM11.3501 32.93C11.0578 32.8108 10.7302 32.8126 10.4392 32.9348C10.1482 33.0571 9.91758 33.2898 9.79809 33.582L8.27709 37.306C8.17556 37.5945 8.18883 37.9111 8.31417 38.1901C8.43951 38.4691 8.66731 38.6893 8.95045 38.805C9.23359 38.9208 9.55038 38.9232 9.83529 38.8119C10.1202 38.7006 10.3514 38.484 10.4811 38.207L12.0021 34.483C12.1213 34.1907 12.1198 33.863 11.9977 33.5719C11.8757 33.2807 11.6431 33.0499 11.3511 32.93H11.3501Z" fill="#0E1420"/>
</svg>
