<svg width="20" height="21" viewBox="0 0 20 21" fill="none" xmlns="http://www.w3.org/2000/svg">
<path fill-rule="evenodd" clip-rule="evenodd" d="M0.679 8.20304L9.339 0.581035C9.52162 0.42017 9.75663 0.331421 10 0.331421C10.2434 0.331421 10.4784 0.42017 10.661 0.581035L19.321 8.20304C19.5343 8.39066 19.7051 8.62156 19.8222 8.88038C19.9393 9.13919 19.9999 9.41997 20 9.70404V19C20 19.5305 19.7893 20.0392 19.4142 20.4142C19.0391 20.7893 18.5304 21 18 21H2C1.46957 21 0.960859 20.7893 0.585786 20.4142C0.210714 20.0392 0 19.5305 0 19V9.70404C9.26305e-05 9.41997 0.0606952 9.13919 0.177773 8.88038C0.294851 8.62156 0.465718 8.39066 0.679 8.20304ZM9 13C8.73478 13 8.48043 13.1054 8.29289 13.2929C8.10536 13.4805 8 13.7348 8 14V18C8 18.2653 8.10536 18.5196 8.29289 18.7071C8.48043 18.8947 8.73478 19 9 19H11C11.2652 19 11.5196 18.8947 11.7071 18.7071C11.8946 18.5196 12 18.2653 12 18V14C12 13.7348 11.8946 13.4805 11.7071 13.2929C11.5196 13.1054 11.2652 13 11 13H9Z" fill="#8A898E"/>
</svg>
