<svg width="24" height="20" viewBox="0 0 24 20" fill="none" xmlns="http://www.w3.org/2000/svg">
<path fill-rule="evenodd" clip-rule="evenodd" d="M12 8C13.0608 8 14.0782 7.57857 14.8284 6.82843C15.5785 6.07828 16 5.06087 16 4C16 2.93913 15.5785 1.92172 14.8284 1.17157C14.0782 0.421427 13.0608 0 12 0C10.9391 0 9.92168 0.421427 9.17154 1.17157C8.42139 1.92172 7.99996 2.93913 7.99996 4C7.99996 5.06087 8.42139 6.07828 9.17154 6.82843C9.92168 7.57857 10.9391 8 12 8ZM6.49996 1C5.5717 1 4.68147 1.36875 4.02509 2.02513C3.36871 2.6815 2.99996 3.57174 2.99996 4.5C2.99996 5.42826 3.36871 6.3185 4.02509 6.97487C4.68147 7.63125 5.5717 8 6.49996 8C6.76518 8 7.01953 7.89464 7.20707 7.70711C7.39461 7.51957 7.49996 7.26522 7.49996 7C7.49996 6.73478 7.39461 6.48043 7.20707 6.29289C7.01953 6.10536 6.76518 6 6.49996 6C6.10214 6 5.72061 5.84196 5.4393 5.56066C5.158 5.27936 4.99996 4.89782 4.99996 4.5C4.99996 4.10218 5.158 3.72064 5.4393 3.43934C5.72061 3.15804 6.10214 3 6.49996 3C6.76518 3 7.01953 2.89464 7.20707 2.70711C7.39461 2.51957 7.49996 2.26522 7.49996 2C7.49996 1.73478 7.39461 1.48043 7.20707 1.29289C7.01953 1.10536 6.76518 1 6.49996 1ZM4.99996 16C5.00075 15.0319 5.20236 14.0744 5.59203 13.1882C5.9817 12.302 6.55096 11.5062 7.26385 10.8512C7.97674 10.1962 8.81775 9.69615 9.73373 9.38272C10.6497 9.06929 11.6207 8.94928 12.5855 9.03026C13.5502 9.11123 14.4876 9.39145 15.3386 9.85318C16.1895 10.3149 16.9354 10.9481 17.5291 11.7128C18.1228 12.4775 18.5514 13.3571 18.7879 14.2959C19.0244 15.2347 19.0636 16.2123 18.903 17.167C18.603 18.958 14 19.5 12 19.5C9.99996 19.5 5.41896 19.075 5.09796 17.17C5.03278 16.7834 5 16.392 4.99996 16ZM4.85396 10.773C5.06004 10.6059 5.19129 10.3638 5.21886 10.0999C5.24643 9.83608 5.16805 9.57207 5.00096 9.366C4.83388 9.15993 4.59177 9.02867 4.32791 9.0011C4.06404 8.97353 3.80004 9.05191 3.59396 9.219C2.62819 9.99967 1.88786 11.0236 1.44916 12.1854C1.01046 13.3471 0.889238 14.6048 1.09796 15.829C1.14561 16.0871 1.29284 16.3162 1.50788 16.4667C1.72292 16.6172 1.98852 16.6772 2.24737 16.6336C2.50622 16.59 2.73755 16.4464 2.89145 16.2338C3.04534 16.0211 3.10946 15.7565 3.06996 15.497C2.91989 14.6219 3.00612 13.7226 3.31974 12.892C3.63335 12.0614 4.16299 11.3295 4.85396 10.772V10.773ZM21.5 4.5C21.5 3.57174 21.1312 2.6815 20.4748 2.02513C19.8185 1.36875 18.9282 1 18 1C17.7347 1 17.4804 1.10536 17.2929 1.29289C17.1053 1.48043 17 1.73478 17 2C17 2.26522 17.1053 2.51957 17.2929 2.70711C17.4804 2.89464 17.7347 3 18 3C18.3978 3 18.7793 3.15804 19.0606 3.43934C19.3419 3.72064 19.5 4.10218 19.5 4.5C19.5 4.89782 19.3419 5.27936 19.0606 5.56066C18.7793 5.84196 18.3978 6 18 6C17.7347 6 17.4804 6.10536 17.2929 6.29289C17.1053 6.48043 17 6.73478 17 7C17 7.26522 17.1053 7.51957 17.2929 7.70711C17.4804 7.89464 17.7347 8 18 8C18.9282 8 19.8185 7.63125 20.4748 6.97487C21.1312 6.3185 21.5 5.42826 21.5 4.5ZM19.37 10.773C19.1639 10.6059 19.0326 10.3638 19.0051 10.0999C18.9775 9.83608 19.0559 9.57207 19.223 9.366C19.39 9.15993 19.6322 9.02867 19.896 9.0011C20.1599 8.97353 20.4239 9.05191 20.63 9.219C21.5959 9.99956 22.3364 11.0234 22.7753 12.1852C23.2142 13.347 23.3356 14.6047 23.127 15.829C23.107 15.9601 23.0612 16.086 22.9921 16.1992C22.923 16.3125 22.8321 16.4109 22.7246 16.4886C22.6172 16.5664 22.4953 16.622 22.3662 16.6522C22.237 16.6825 22.1031 16.6867 21.9723 16.6647C21.8415 16.6426 21.7164 16.5948 21.6043 16.524C21.4921 16.4531 21.3952 16.3607 21.3191 16.252C21.2431 16.1433 21.1894 16.0206 21.1612 15.891C21.133 15.7614 21.1309 15.6274 21.155 15.497C21.305 14.6219 21.2188 13.7226 20.9052 12.892C20.5916 12.0614 20.0619 11.3295 19.371 10.772L19.37 10.773Z" fill="#8A898E"/>
</svg>
