<svg width="8" height="14" viewBox="0 0 8 14" fill="none" xmlns="http://www.w3.org/2000/svg">
<path fill-rule="evenodd" clip-rule="evenodd" d="M7.44709 12L2.67009 6.99998L7.44709 1.99998C7.65938 1.77657 7.77775 1.48016 7.77775 1.17198C7.77775 0.863794 7.65938 0.567382 7.44709 0.343978C7.34489 0.235373 7.22155 0.148829 7.08466 0.089673C6.94776 0.0305169 6.80021 0 6.65109 0C6.50196 0 6.35441 0.0305169 6.21751 0.089673C6.08062 0.148829 5.95728 0.235373 5.85509 0.343978L0.330086 6.12098C0.0980861 6.36198 -0.013914 6.68098 0.00108604 6.99998C-0.013914 7.31898 0.098086 7.63798 0.331086 7.87898L5.85509 13.656C5.95728 13.7646 6.08062 13.8511 6.21751 13.9103C6.35441 13.9694 6.50196 14 6.65109 14C6.80021 14 6.94776 13.9694 7.08466 13.9103C7.22155 13.8511 7.34489 13.7646 7.44709 13.656C7.65938 13.4326 7.77775 13.1362 7.77775 12.828C7.77775 12.5198 7.65938 12.2234 7.44709 12Z" fill="#006CFF"/>
</svg>
