<svg width="24" height="24" viewBox="0 0 24 24" fill="none" xmlns="http://www.w3.org/2000/svg">
<path fill-rule="evenodd" clip-rule="evenodd" d="M1.66301 17.762H6.78501V15.667H5.12301L6.86301 13.929L6.20301 13.19C5.21301 12.082 4.68901 10.764 4.68901 9.381C4.68901 5.914 7.97901 3.095 12.023 3.095C15.681 3.095 18.806 5.435 19.291 8.54L21.361 8.217C20.718 4.102 16.704 1 12.023 1C6.82501 1 2.59401 4.76 2.59401 9.38C2.59401 10.968 3.08401 12.48 4.02001 13.808L1.19501 16.632C1.10247 16.7246 1.03946 16.8425 1.01393 16.9709C0.988404 17.0993 1.00151 17.2324 1.0516 17.3533C1.10169 17.4742 1.18651 17.5776 1.29533 17.6504C1.40416 17.7231 1.53211 17.762 1.66301 17.762Z" fill="#8A898E"/>
<path d="M22.381 22C22.875 22 23.169 21.438 22.895 21.018L21.182 18.389C21.5282 17.6401 21.708 16.8251 21.709 16C21.709 12.691 18.859 10 15.355 10C11.851 10 9 12.691 9 16C9 19.309 11.85 22 15.354 22H22.381Z" fill="#8A898E"/>
</svg>
