<svg width="15" height="12" viewBox="0 0 15 12" fill="none" xmlns="http://www.w3.org/2000/svg">
<path fill-rule="evenodd" clip-rule="evenodd" d="M7.61306 0C11.2077 0 14.1984 2.58667 14.8257 6C14.1991 9.41333 11.2077 12 7.61306 12C4.01839 12 1.02772 9.41333 0.400391 6C1.02706 2.58667 4.01839 0 7.61306 0ZM7.61304 9C5.95618 9 4.61304 7.65685 4.61304 6C4.61304 4.34315 5.95618 3 7.61304 3C8.17251 3 8.69622 3.15315 9.14452 3.41982C8.97758 3.36368 8.79882 3.33325 8.61296 3.33325C7.69248 3.33325 6.94629 4.07945 6.94629 4.99992C6.94629 5.92039 7.69248 6.66659 8.61296 6.66659C9.53343 6.66659 10.2796 5.92039 10.2796 4.99992C10.2796 4.81396 10.2492 4.63511 10.193 4.4681C10.4598 4.91649 10.613 5.44035 10.613 6C10.613 7.65685 9.26989 9 7.61304 9Z" fill="#8A898E"/>
</svg>
