<svg width="34" height="30" viewBox="0 0 34 30" fill="none" xmlns="http://www.w3.org/2000/svg">
<path d="M33.9644 0.0196269C33.8228 -0.108606 32.2973 0.430797 32.1202 0.50181L0.388455 13.1795C0.157878 13.2719 0.00572869 13.492 0.000141711 13.7402C-0.00514539 13.9879 0.137898 14.2144 0.36407 14.3166L9.5589 18.4618V29.0577C9.5589 29.4571 9.81209 29.8145 10.1898 29.9469C10.2918 29.9827 10.3972 30 10.5015 30C10.7823 30 11.0563 29.8744 11.2384 29.647L16.6713 22.8717L16.5685 22.7895L25.1121 28.6296C25.2161 28.7006 25.3386 28.7373 25.4619 28.7373C25.5321 28.7373 25.6026 28.7259 25.6705 28.7015C25.8567 28.6346 26.0006 28.4814 26.0558 28.2916L33.6259 2.00726C33.6793 1.82415 34.1277 0.167592 33.9644 0.0196269ZM13.3745 19.8075C13.2611 19.9308 13.2068 20.0968 13.2256 20.2632C13.2444 20.4296 13.3346 20.5793 13.4732 20.6738L15.3155 21.9329L11.2032 27.0612V18.3178L20.774 11.7898L13.3745 19.8075Z" fill="#5B85FD"/>
</svg>
