<svg width="11" height="14" viewBox="0 0 11 14" fill="none" xmlns="http://www.w3.org/2000/svg">
<g clip-path="url(#clip0_119_2915)">
<path d="M0 11.622C0 10.3962 0.486959 9.22055 1.35375 8.35375C2.22055 7.48696 3.39617 7 4.622 7H5.778C7.00383 7 8.17945 7.48696 9.04625 8.35375C9.91304 9.22055 10.4 10.3962 10.4 11.622C10.4 12.2349 10.1565 12.8227 9.72312 13.2561C9.28973 13.6895 8.70192 13.933 8.089 13.933H2.31C1.69743 13.9327 1.11003 13.6893 0.676876 13.2561C0.243724 12.823 0.000265009 12.2356 0 11.623L0 11.622Z" fill="#8A898E"/>
<path d="M5.20008 6.30689C6.92321 6.30689 8.32008 4.91002 8.32008 3.18689C8.32008 1.46377 6.92321 0.0668945 5.20008 0.0668945C3.47695 0.0668945 2.08008 1.46377 2.08008 3.18689C2.08008 4.91002 3.47695 6.30689 5.20008 6.30689Z" fill="#8A898E"/>
</g>
<defs>
<clipPath id="clip0_119_2915">
<rect width="11" height="14" fill="white"/>
</clipPath>
</defs>
</svg>
